<svg xmlns="http://www.w3.org/2000/svg" xmlns:xlink="http://www.w3.org/1999/xlink" contentStyleType="text/css" data-diagram-type="SEQUENCE" height="125px" preserveAspectRatio="none" style="width:124px;height:125px;background:#FFFFFF;" version="1.1" viewBox="0 0 124 125" width="124px" zoomAndPan="magnify"><defs/><g><g><title>Alpha</title><rect fill="#000000" fill-opacity="0.00000" height="48" width="8" x="26.8369" y="39.0679"/><line style="stroke:#181818;stroke-width:0.5;stroke-dasharray:5.0,5.0;" x1="30" x2="30" y1="39.0679" y2="87.0679"/></g><g><title>Bravo</title><rect fill="#000000" fill-opacity="0.00000" height="48" width="8" x="88.8328" y="39.0679"/><line style="stroke:#181818;stroke-width:0.5;stroke-dasharray:5.0,5.0;" x1="92.6739" x2="92.6739" y1="39.0679" y2="87.0679"/></g><g class="participant participant-head" data-participant="Alpha"><rect fill="#E3E3E3" height="33.0679" rx="2.5" ry="2.5" style="stroke:#181818;stroke-width:0.5;" width="51.6739" x="5" y="5"/><text fill="#000000" font-family="sans-serif" font-size="14" lengthAdjust="spacing" textLength="37.6739" x="12" y="26.9659">Alpha</text></g><g class="participant participant-tail" data-participant="Alpha"><rect fill="#E3E3E3" height="33.0679" rx="2.5" ry="2.5" style="stroke:#181818;stroke-width:0.5;" width="51.6739" x="5" y="86.0679"/><text fill="#000000" font-family="sans-serif" font-size="14" lengthAdjust="spacing" textLength="37.6739" x="12" y="108.0339">Alpha</text></g><g class="participant participant-head" data-participant="Bravo"><rect fill="#E3E3E3" height="33.0679" rx="2.5" ry="2.5" style="stroke:#181818;stroke-width:0.5;" width="52.3179" x="66.6739" y="5"/><text fill="#000000" font-family="sans-serif" font-size="14" lengthAdjust="spacing" textLength="38.3179" x="73.6739" y="26.9659">Bravo</text></g><g class="participant participant-tail" data-participant="Bravo"><rect fill="#E3E3E3" height="33.0679" rx="2.5" ry="2.5" style="stroke:#181818;stroke-width:0.5;" width="52.3179" x="66.6739" y="86.0679"/><text fill="#000000" font-family="sans-serif" font-size="14" lengthAdjust="spacing" textLength="38.3179" x="73.6739" y="108.0339">Bravo</text></g><g class="message" data-participant-1="Alpha" data-participant-2="Bravo"><polygon fill="#181818" points="80.8328,51.0679,90.8328,55.0679,80.8328,59.0679,84.8328,55.0679" style="stroke:#181818;stroke-width:1;"/><line style="stroke:#181818;stroke-width:1;" x1="30.8369" x2="86.8328" y1="55.0679" y2="55.0679"/></g><g class="message" data-participant-1="Bravo" data-participant-2="Alpha"><polygon fill="#181818" points="41.8369,65.0679,31.8369,69.0679,41.8369,73.0679,37.8369,69.0679" style="stroke:#181818;stroke-width:1;"/><line style="stroke:#181818;stroke-width:1;" x1="35.8369" x2="91.8328" y1="69.0679" y2="69.0679"/></g><!--SRC=[AyxEp2j8B4hCLSZDpyjFpYZApqrLA2agJULop2d8I5JGjLDmAaeio-S2ao0kM1m0]--></g></svg>